<svg xmlns="http://www.w3.org/2000/svg" width="15" height="15" viewBox="0 0 15 15" fill="none">
  <path fill-rule="evenodd" clip-rule="evenodd" d="M0.969389 8.48665H11.8061L7.06727 13.3224C6.88191 13.5025 6.77701 13.7521 6.77701 14.0132C6.77701 14.2742 6.88191 14.5239 7.06727 14.7039C7.24378 14.893 7.48856 15 7.74451 15C8.00047 15 8.24524 14.893 8.42176 14.7039L14.7093 8.28939C15.0969 7.8374 15.0969 7.1626 14.7093 6.71061L8.42025 0.296051C8.24373 0.106998 7.99896 0 7.743 0C7.48705 0 7.24227 0.106998 7.06576 0.296051H7.06575C6.8804 0.476094 6.7755 0.725752 6.7755 0.986819C6.7755 1.24789 6.8804 1.49755 7.06575 1.67759L11.8061 6.51258L0.969389 6.51258C0.708203 6.49643 0.452753 6.59523 0.26773 6.78395C0.0827036 6.97267 -0.0141592 7.23321 0.00167656 7.49962C-0.0141592 7.76601 0.0827036 8.02656 0.267727 8.21528C0.452752 8.404 0.7082 8.5028 0.969389 8.48665Z" fill="#0B1A54"/>
</svg>